# xmcd
#
# Track frame offsets: 
#        150
#        9925
#        19880
#        33460
#        47663
#        60945
#        74325
#        85328
#        97848
#        114150
#        124085
#        134443
#        144973
#        157128
#        167483
#        179523
#        191575
#        204788
#        216235
#        226913
#
# Disc length: 3214 seconds
#
# Revision: 3
# Processed by: cddbd v1.5.2PL0 Copyright (c) Steve Scherf et al.
# Submitted via: ExactAudioCopy v0.99pb5
#
DISCID=060c8c14
DTITLE=Various Artist - Hol dir den Beat zurück - Vol. 2 - CD 2
DYEAR=1993
DGENRE=Oldies
TTITLE0=Kinks - Dandy
TTITLE1=Searchers - Needles and pins
TTITLE2=Love Affair - Everlasting love
TTITLE3=Sonny and Cher - I got you babe
TTITLE4=Honeycombs - Have I the right
TTITLE5=Foundations - Build me up buttercup
TTITLE6=Littel Eva - The loco-motion
TTITLE7=Lords - Poor boy
TTITLE8=Chris Farlowe - Out of time
TTITLE9=David Garrick - Dear Mrs. Applebee
TTITLE10=1910 Fruitgum Co. - Simon says
TTITLE11=Ohio Express - Yummy yummy yummy
TTITLE12=R.B. Greaves - Take a letter Maria
TTITLE13=Ricky Nelson - Hello Mary Lou
TTITLE14=Peter and Gordon - World without love
TTITLE15=Sir Douglas Quintet - Mendocino
TTITLE16=John Fred and His Playboy Band - Judy in disguise (with glasses
TTITLE16=)
TTITLE17=Chris Andrews - Yesterday man
TTITLE18=Sam The Sham And The Pharaohs - Wooly Bully
TTITLE19=Beach Boys - Barbara Ann
EXTD=
EXTT0=
EXTT1=
EXTT2=
EXTT3=
EXTT4=
EXTT5=
EXTT6=
EXTT7=
EXTT8=
EXTT9=
EXTT10=
EXTT11=
EXTT12=
EXTT13=
EXTT14=
EXTT15=
EXTT16=
EXTT17=
EXTT18=
EXTT19=
PLAYORDER=
